<svg xmlns="http://www.w3.org/2000/svg" width="24" height="24" viewBox="0 0 24 24">
    <g fill="none" fill-rule="evenodd">
        <g fill="#B3B3B3" fill-rule="nonzero">
            <g>
                <g>
                    <g>
                        <g>
                            <g>
                                <path d="M7.5 3.25c.414 0 .102.336.102.75 0 .38.366.693 0 .743L7.5 4.75H5.25c-.797 0-1.422.514-1.493 1.133L3.75 6v14c0 .63.579 1.181 1.353 1.244l.147.006h13.5c.797 0 1.422-.514 1.493-1.133L20.25 20V6c0-.63-.579-1.181-1.353-1.244l-.147-.006H16.5c-.414 0-.102-.336-.102-.75 0-.38-.366-.693 0-.743l.102-.007h2.25c1.58 0 2.902 1.125 2.995 2.586L21.75 6v14c0 1.485-1.266 2.663-2.826 2.745l-.174.005H5.25c-1.58 0-2.902-1.125-2.995-2.586L2.25 20V6c0-1.485 1.266-2.663 2.826-2.745l.174-.005H7.5z" transform="translate(-96 -948) translate(0 938) translate(20 6) translate(0 4) translate(69) translate(7)"/>
                                <path d="M15.47 8.827H9.533c-.377 0-.683.306-.683.683 0 .376.306.682.683.682h1.7l.141.006c.73.054 1.364.538 1.614 1.221l-3.455-.067c-.377 0-.683.307-.683.683l.006.089.02.099c.084.289.349.494.657.494h3.433l.019-.045c-.264.733-.963 1.232-1.753 1.234H9.535c-.385.006-.689.318-.682.698 0 .174.075.35.205.479l4.253 4.023c.272.259.703.247.963-.027l.067-.084.055-.097c.122-.263.069-.577-.144-.785l-3.006-2.843.154-.004c1.404-.074 2.6-1.056 2.954-2.407l.04-.18 1.076.038c.376 0 .682-.306.682-.682l-.006-.09c-.046-.338-.334-.593-.676-.593h-1.127l.039-.016c-.1-.436-.291-.848-.557-1.206l-.015-.02 1.66.082c.376 0 .682-.306.682-.682 0-.377-.306-.683-.682-.683z" transform="translate(-96 -948) translate(0 938) translate(20 6) translate(0 4) translate(69) translate(7)"/>
                                <path stroke="#B3B3B3" stroke-width=".2" d="M15 .95c.96 0 1.78.664 1.996 1.584l.03.156.018.158.006.152v2c0 .96-.664 1.78-1.584 1.996l-.156.03-.158.018L15 7.05H9c-.96 0-1.78-.664-1.996-1.584l-.03-.156-.018-.158L6.95 5V3c0-.96.664-1.78 1.584-1.996l.156-.03.158-.018L9 .95h6zm-.3 1.15H9.3l-.127.007-.135.022-.13.038c-.336.117-.603.373-.73.704h0l-.042.138-.025.13-.01.142L8.1 4.7l.007.126.022.136.037.129c.117.336.374.604.705.73h0l.137.043.13.025.142.01 5.42.001.127-.007.135-.022.13-.038c.336-.117.603-.373.73-.704h0l.042-.138.025-.13.01-.142L15.9 3.3l-.007-.128-.02-.128-.036-.125c-.164-.486-.617-.819-1.137-.819h0z" transform="translate(-96 -948) translate(0 938) translate(20 6) translate(0 4) translate(69) translate(7)"/>
                            </g>
                        </g>
                    </g>
                </g>
            </g>
        </g>
    </g>
</svg>
