<svg xmlns="http://www.w3.org/2000/svg" width="24" height="24" viewBox="0 0 24 24">
    <g fill="none" fill-rule="evenodd">
        <g fill="#B3B3B3" fill-rule="nonzero">
            <g>
                <g>
                    <g>
                        <g>
                            <g>
                                <g>
                                    <path d="M22.805 16.598c.205.41.067.902-.305 1.15l-.098.057-10 5c-.217.109-.467.124-.693.047l-.111-.047-10-5c-.445-.222-.625-.763-.403-1.207.205-.41.682-.596 1.103-.447l.104.044L12 20.994l9.598-4.799c.444-.222.985-.042 1.207.403zm0-5c.205.41.067.902-.305 1.15l-.098.057-10 5c-.217.109-.467.124-.693.047l-.111-.047-10-5c-.445-.222-.625-.763-.403-1.207.205-.41.682-.596 1.103-.447l.104.044L12 15.994l9.598-4.799c.444-.222.985-.042 1.207.403zM11.598 1.195c.253-.127.551-.127.804 0l10 5c.664.332.664 1.278 0 1.61l-10 5c-.253.127-.551.127-.804 0l-10-5c-.664-.332-.664-1.278 0-1.61zM12 3.005L4.011 7 12 10.994 19.988 7 12 3.005z" transform="translate(-240 -948) translate(0 938) translate(20 6) translate(0 4) translate(136) translate(68) translate(16)"/>
                                </g>
                            </g>
                        </g>
                    </g>
                </g>
            </g>
        </g>
    </g>
</svg>
